<svg width="33" height="29" viewBox="0 0 33 29" fill="none" xmlns="http://www.w3.org/2000/svg">
<path d="M15.5986 0.85791C16.0337 0.422865 16.7245 0.395108 17.1914 0.775879L17.2812 0.85791L19.5498 3.12646C21.0576 4.63423 21.7921 6.62111 21.7568 8.59717L21.7471 9.146L22.2607 8.95264C24.175 8.23189 26.3649 8.29127 28.3086 9.27002L28.6934 9.47803L30.2676 10.3862H30.2646L31.4717 11.0815C32.0056 11.3891 32.2101 12.0481 31.9629 12.5981L31.9072 12.7065L30.3105 15.4731C29.2736 17.2696 27.6112 18.4782 25.7559 18.9849L25.2842 19.1128L25.5332 19.5337C26.1997 20.66 26.584 21.971 26.584 23.3745V26.5825C26.584 27.24 26.0512 27.7729 25.3936 27.7729H22.1982C20.0994 27.7729 18.2012 26.9168 16.8311 25.5356L16.5664 25.2681L16.3018 25.5356C14.9318 26.918 13.0336 27.7729 10.9346 27.7729H7.73926C7.08162 27.7729 6.54883 27.24 6.54883 26.5825V23.3745C6.54883 21.9936 6.92171 20.7011 7.56934 19.5874L7.82031 19.1558L7.33496 19.0386C5.51614 18.5978 3.86324 17.4899 2.77734 15.8169L2.56836 15.4741L0.970703 12.7075H0.97168C0.664076 12.1744 0.815894 11.5014 1.30469 11.1489L1.40723 11.0825L4.18652 9.479C6.22479 8.30261 8.58286 8.18552 10.626 8.95557L11.1396 9.14893L11.1299 8.6001C11.0956 6.74254 11.74 4.87634 13.0654 3.40576L13.3389 3.1167L15.5986 0.85791Z" fill="#CEC4FA" stroke="#CEC4FA" stroke-width="0.744897"/>
<path d="M15.4494 15.035C14.6435 15.5003 13.613 15.2241 13.1478 14.4182V14.4182C13.1012 14.3377 13.1289 14.2346 13.2094 14.1881V14.1881C14.0153 13.7228 15.0458 13.9989 15.5111 14.8048V14.8048C15.5576 14.8854 15.53 14.9884 15.4494 15.035V15.035Z" fill="white"/>
<path d="M17.4451 15.035C18.251 15.5003 19.2815 15.2241 19.7468 14.4182V14.4182C19.7933 14.3377 19.7657 14.2346 19.6851 14.1881V14.1881C18.8792 13.7228 17.8487 13.9989 17.3834 14.8048V14.8048C17.3369 14.8854 17.3645 14.9884 17.4451 15.035V15.035Z" fill="white"/>
<path d="M16.333 14.355C15.675 13.697 15.675 12.6302 16.333 11.9721V11.9721C16.3988 11.9063 16.5055 11.9063 16.5713 11.9721V11.9721C17.2293 12.6302 17.2293 13.697 16.5713 14.355V14.355C16.5055 14.4208 16.3988 14.4208 16.333 14.355V14.355Z" fill="white"/>
<path d="M16.0568 16.0457C16.0826 16.9759 15.3494 17.7509 14.4192 17.7767V17.7767C14.3262 17.7793 14.2487 17.706 14.2461 17.613V17.613C14.2203 16.6828 14.9534 15.9078 15.8836 15.8819V15.8819C15.9767 15.8794 16.0542 15.9527 16.0568 16.0457V16.0457Z" fill="white"/>
<path d="M16.8759 16.0457C16.85 16.9759 17.5832 17.7509 18.5134 17.7767V17.7767C18.6064 17.7793 18.6839 17.706 18.6865 17.613V17.613C18.7123 16.6828 17.9792 15.9078 17.049 15.8819V15.8819C16.956 15.8794 16.8784 15.9527 16.8759 16.0457V16.0457Z" fill="white"/>
</svg>
