<svg width="1280" height="832" viewBox="0 0 1280 832" fill="none" xmlns="http://www.w3.org/2000/svg">
<rect width="1280" height="832" fill="#FFF8F2"/>
<path d="M1280 767H0V0H1280V767Z" fill="#CEC4FA"/>
<path d="M64 703C99.3462 703 128 731.654 128 767C128 802.346 99.3462 831 64 831C28.6538 831 0 802.346 0 767C0 731.654 28.6538 703 64 703Z" fill="#CEC4FA"/>
<path d="M192 703C227.346 703 256 731.654 256 767C256 802.346 227.346 831 192 831C156.654 831 128 802.346 128 767C128 731.654 156.654 703 192 703Z" fill="#CEC4FA"/>
<path d="M320 703C355.346 703 384 731.654 384 767C384 802.346 355.346 831 320 831C284.654 831 256 802.346 256 767C256 731.654 284.654 703 320 703Z" fill="#CEC4FA"/>
<path d="M447.5 703C482.57 703 511 731.654 511 767C511 802.346 482.57 831 447.5 831C412.43 831 384 802.346 384 767C384 731.654 412.43 703 447.5 703Z" fill="#CEC4FA"/>
<path d="M575 703C610.346 703 639 731.654 639 767C639 802.346 610.346 831 575 831C539.654 831 511 802.346 511 767C511 731.654 539.654 703 575 703Z" fill="#CEC4FA"/>
<path d="M704 703C739.899 703 769 731.654 769 767C769 802.346 739.899 831 704 831C668.101 831 639 802.346 639 767C639 731.654 668.101 703 704 703Z" fill="#CEC4FA"/>
<path d="M832.5 703C867.57 703 896 731.654 896 767C896 802.346 867.57 831 832.5 831C797.43 831 769 802.346 769 767C769 731.654 797.43 703 832.5 703Z" fill="#CEC4FA"/>
<path d="M960 703C995.346 703 1024 731.654 1024 767C1024 802.346 995.346 831 960 831C924.654 831 896 802.346 896 767C896 731.654 924.654 703 960 703Z" fill="#CEC4FA"/>
<path d="M1088 703C1123.35 703 1152 731.654 1152 767C1152 802.346 1123.35 831 1088 831C1052.65 831 1024 802.346 1024 767C1024 731.654 1052.65 703 1088 703Z" fill="#CEC4FA"/>
<path d="M1216 703C1251.35 703 1280 731.654 1280 767C1280 802.346 1251.35 831 1216 831C1180.65 831 1152 802.346 1152 767C1152 731.654 1180.65 703 1216 703Z" fill="#CEC4FA"/>
</svg>
