<svg width="35" height="35" viewBox="0 0 35 35" fill="none" xmlns="http://www.w3.org/2000/svg">
<path d="M17.085 9.16208C12.2379 9.16208 8.32815 13.0718 8.32815 17.9189C8.32815 22.766 12.2379 26.6758 17.085 26.6758C21.9321 26.6758 25.8418 22.766 25.8418 17.9189C25.8418 13.0718 21.9321 9.16208 17.085 9.16208ZM17.085 23.612C13.9526 23.612 11.3919 21.0589 11.3919 17.9189C11.3919 14.779 13.945 12.2258 17.085 12.2258C20.225 12.2258 22.7781 14.779 22.7781 17.9189C22.7781 21.0589 20.2173 23.612 17.085 23.612ZM28.2425 8.80388C28.2425 9.93945 27.328 10.8464 26.2 10.8464C25.0645 10.8464 24.1575 9.93183 24.1575 8.80388C24.1575 7.67593 25.0721 6.76138 26.2 6.76138C27.328 6.76138 28.2425 7.67593 28.2425 8.80388ZM34.0423 10.8769C33.9128 8.14083 33.2878 5.71726 31.2834 3.72049C29.2866 1.72371 26.8631 1.09877 24.127 0.961588C21.3072 0.801541 12.8552 0.801541 10.0353 0.961588C7.3069 1.09115 4.88333 1.71609 2.87894 3.71287C0.874541 5.70964 0.257218 8.1332 0.120035 10.8692C-0.0400117 13.6891 -0.0400117 22.1411 0.120035 24.961C0.249597 27.697 0.874541 30.1206 2.87894 32.1173C4.88333 34.1141 7.29927 34.7391 10.0353 34.8763C12.8552 35.0363 21.3072 35.0363 24.127 34.8763C26.8631 34.7467 29.2866 34.1217 31.2834 32.1173C33.2802 30.1206 33.9051 27.697 34.0423 24.961C34.2024 22.1411 34.2024 13.6967 34.0423 10.8769ZM30.3994 27.9866C29.8049 29.4804 28.6541 30.6312 27.1527 31.2333C24.9044 32.125 19.5695 31.9192 17.085 31.9192C14.6005 31.9192 9.25794 32.1173 7.01729 31.2333C5.52352 30.6388 4.37271 29.488 3.77062 27.9866C2.87894 25.7383 3.08471 20.4035 3.08471 17.9189C3.08471 15.4344 2.88656 10.0919 3.77062 7.85122C4.36508 6.35745 5.5159 5.20664 7.01729 4.60456C9.26556 3.71287 14.6005 3.91864 17.085 3.91864C19.5695 3.91864 24.912 3.72049 27.1527 4.60456C28.6465 5.19902 29.7973 6.34983 30.3994 7.85122C31.291 10.0995 31.0853 15.4344 31.0853 17.9189C31.0853 20.4035 31.291 25.746 30.3994 27.9866Z" fill="white"/>
</svg>
