<svg width="35" height="35" viewBox="0 0 35 35" fill="none" xmlns="http://www.w3.org/2000/svg">
<path d="M31.9567 0.837646H2.84655C1.45444 0.837646 0.324707 1.94081 0.324707 3.29923V32.5351C0.324707 33.8954 1.45444 35 2.84655 35H31.9567C33.3497 35 34.4871 33.8954 34.4871 32.5351V3.29923C34.4871 1.94081 33.3497 0.837646 31.9567 0.837646ZM10.4567 29.9487H5.38738V13.6462H10.4567V29.9487ZM7.92203 11.4171C6.2979 11.4171 4.98502 10.1009 4.98502 8.47815C4.98502 6.85781 6.2979 5.54161 7.92203 5.54161C9.54237 5.54161 10.8586 6.85781 10.8586 8.47815C10.8586 10.1009 9.54237 11.4171 7.92203 11.4171ZM29.4339 29.9487H24.3726V22.0212C24.3726 20.1299 24.3356 17.6982 21.7388 17.6982C19.1017 17.6982 18.6998 19.7579 18.6998 21.884V29.9492H13.6347V13.6462H18.4958V15.8724H18.565C19.2416 14.5913 20.8947 13.2395 23.3601 13.2395C28.4873 13.2395 29.4344 16.615 29.4344 21.0062L29.4339 29.9487Z" fill="white"/>
</svg>
