<svg width="430" height="932" viewBox="0 0 430 932" fill="none" xmlns="http://www.w3.org/2000/svg">
<g clip-path="url(#clip0_409_7283)">
<rect width="430" height="932" fill="white"/>
<path d="M1280 887H0V0H1280V887Z" fill="#CEC4FA"/>
<path d="M53.95 823C83.7458 823 107.9 847.177 107.9 877C107.9 906.823 83.7458 931 53.95 931C24.1542 931 0 906.823 0 877C0 847.177 24.1542 823 53.95 823Z" fill="#CEC4FA"/>
<path d="M161.85 823C191.646 823 215.8 847.177 215.8 877C215.8 906.823 191.646 931 161.85 931C132.054 931 107.9 906.823 107.9 877C107.9 847.177 132.054 823 161.85 823Z" fill="#CEC4FA"/>
<path d="M269.75 823C299.546 823 323.7 847.177 323.7 877C323.7 906.823 299.546 931 269.75 931C239.954 931 215.8 906.823 215.8 877C215.8 847.177 239.954 823 269.75 823Z" fill="#CEC4FA"/>
<path d="M377.229 823C406.792 823 430.757 847.177 430.757 877C430.757 906.823 406.792 931 377.229 931C347.666 931 323.7 906.823 323.7 877C323.7 847.177 347.666 823 377.229 823Z" fill="#CEC4FA"/>
<path d="M484.707 823C514.503 823 538.657 847.177 538.657 877C538.657 906.823 514.503 931 484.707 931C454.911 931 430.757 906.823 430.757 877C430.757 847.177 454.911 823 484.707 823Z" fill="#CEC4FA"/>
<path d="M593.45 823C623.711 823 648.243 847.177 648.243 877C648.243 906.823 623.711 931 593.45 931C563.189 931 538.657 906.823 538.657 877C538.657 847.177 563.189 823 593.45 823Z" fill="#CEC4FA"/>
<path d="M701.771 823C731.334 823 755.3 847.177 755.3 877C755.3 906.823 731.334 931 701.771 931C672.209 931 648.243 906.823 648.243 877C648.243 847.177 672.209 823 701.771 823Z" fill="#CEC4FA"/>
<path d="M809.25 823C839.046 823 863.2 847.177 863.2 877C863.2 906.823 839.046 931 809.25 931C779.454 931 755.3 906.823 755.3 877C755.3 847.177 779.454 823 809.25 823Z" fill="#CEC4FA"/>
<path d="M917.15 823C946.946 823 971.1 847.177 971.1 877C971.1 906.823 946.946 931 917.15 931C887.354 931 863.2 906.823 863.2 877C863.2 847.177 887.354 823 917.15 823Z" fill="#CEC4FA"/>
<path d="M1025.05 823C1054.85 823 1079 847.177 1079 877C1079 906.823 1054.85 931 1025.05 931C995.254 931 971.1 906.823 971.1 877C971.1 847.177 995.254 823 1025.05 823Z" fill="#CEC4FA"/>
</g>
<defs>
<clipPath id="clip0_409_7283">
<rect width="430" height="932" fill="white"/>
</clipPath>
</defs>
</svg>
