<svg width="573" height="111" viewBox="0 0 573 111" fill="none" xmlns="http://www.w3.org/2000/svg">
<g filter="url(#filter0_d_343_617)">
<path d="M302.15 104.205C285.508 104.205 277.187 94.7322 277.187 75.53C277.187 70.9215 277.699 65.6729 278.851 60.2963C278.211 59.9122 277.443 59.6562 276.803 59.6562C273.475 59.6562 271.298 62.6005 271.298 72.7137V102.413H227.517L228.797 70.2814C229.438 53.6395 227.133 43.2703 224.957 35.7175C231.23 31.237 239.167 28.8047 247.488 28.8047C261.697 28.8047 270.018 35.4614 269.506 48.903H272.066C275.779 36.7416 285.636 28.8047 299.59 28.8047C314.823 28.8047 322.888 38.7898 321.352 55.0477L320.328 66.0569C319.944 69.7694 321.864 71.0495 324.68 71.0495C325.833 71.0495 327.881 70.6655 329.289 69.7694C330.441 72.9697 330.953 76.0421 330.953 78.9864C330.953 92.94 319.304 104.205 302.15 104.205Z" fill="#FFF8F2"/>
<path d="M270.069 72.7128C270.069 67.6168 270.61 64.1196 271.695 61.8591C272.249 60.7045 272.968 59.8238 273.872 59.2396C274.781 58.6528 275.785 58.4246 276.804 58.4246C277.728 58.4246 278.714 58.7767 279.486 59.2401L280.241 59.693L280.056 60.5532C278.922 65.8456 278.42 71.0081 278.42 75.5294C278.42 84.9805 280.471 91.8047 284.357 96.2582C288.214 100.679 294.065 102.973 302.152 102.973C318.748 102.973 329.724 92.1429 329.724 78.9856C329.724 76.5889 329.366 74.0948 328.569 71.4987C327.174 72.0483 325.659 72.2796 324.682 72.2796C323.125 72.2795 321.551 71.9305 320.435 70.815C319.295 69.6746 318.894 67.9999 319.104 65.9423L320.128 54.9329V54.9309L320.192 54.1938C320.774 46.6263 319.161 40.6805 315.811 36.6111C312.369 32.431 306.933 30.0348 299.591 30.0348C286.192 30.0349 276.804 37.6058 273.245 49.2616L272.98 50.1333H268.229L268.278 48.8553C268.524 42.4072 266.655 37.7781 263.205 34.7359C259.72 31.6624 254.426 30.0349 247.49 30.0348C239.716 30.0348 232.316 32.2207 226.383 36.2269C228.513 43.8062 230.652 54.1454 230.029 70.3279L230.029 70.3298L228.8 101.181H270.069V72.7128ZM272.531 103.643H226.238L227.569 70.2332L227.597 69.4653C228.132 53.427 225.889 43.3929 223.776 36.0576L223.535 35.221L224.243 34.7152C230.742 30.0733 238.934 27.573 247.49 27.573C254.762 27.5731 260.734 29.2743 264.833 32.8895C268.713 36.3108 270.745 41.2932 270.761 47.6715H271.171C275.239 35.4967 285.419 27.5731 299.591 27.573C307.484 27.573 313.696 30.1696 317.712 35.0465C321.71 39.9029 323.367 46.8243 322.579 55.1627L321.555 66.1702L321.554 66.1827C321.384 67.8317 321.751 68.6489 322.176 69.0744C322.629 69.527 323.423 69.8177 324.682 69.8177C325.67 69.8177 327.471 69.4676 328.63 68.7301L329.928 67.9041L330.449 69.3518C331.648 72.6819 332.186 75.8951 332.186 78.9856C332.186 93.7355 319.863 105.435 302.152 105.435C293.596 105.435 286.965 102.993 282.502 97.8767C278.067 92.7933 275.958 85.2801 275.958 75.5294C275.958 71.1106 276.42 66.1255 277.449 61.0023C277.206 60.9256 276.981 60.8864 276.804 60.8864C276.16 60.8865 275.644 61.0265 275.208 61.3076C274.769 61.5915 274.32 62.0792 273.914 62.9246C273.079 64.6646 272.531 67.696 272.531 72.7128V103.643Z" fill="#444752"/>
</g>
<g filter="url(#filter1_d_343_617)">
<path d="M45.5235 104.145C23.249 104.145 12.2397 94.6716 12.2397 77.0056C12.2397 69.1967 16.0802 58.9556 16.0802 49.9946C16.0802 44.6179 13.3919 42.5697 8.78333 42.5697C6.35105 42.5697 4.30282 43.3378 2.89466 44.6179C1.74253 41.0335 1.23047 37.9612 1.23047 35.0168C1.23047 22.0874 9.80745 11.0781 28.8816 11.0781C46.6756 11.0781 56.7888 23.7516 56.7888 43.3378C56.7888 62.54 51.1561 71.629 51.1561 74.4453C51.1561 75.7255 51.6682 76.2375 52.6923 76.2375C56.9168 76.2375 63.8296 61.8999 63.8296 43.9779C63.8296 33.7367 61.9094 23.8796 57.6849 17.2228C62.4214 13.7664 69.9743 11.0781 79.8314 11.0781C94.169 11.0781 104.41 18.375 104.41 40.5215C104.41 62.54 98.7776 71.629 98.7776 74.4453C98.7776 75.7255 99.2896 76.2375 100.314 76.2375C104.538 76.2375 111.451 61.8999 111.451 43.9779C111.451 33.7367 109.531 23.8796 105.306 17.2228C110.043 13.7664 117.596 11.0781 127.453 11.0781C141.79 11.0781 152.544 18.375 152.544 40.5215C152.544 67.1485 136.67 104.145 100.826 104.145C90.0726 104.145 82.5197 100.432 78.0392 93.9035C69.3342 100.176 58.581 104.145 45.5235 104.145Z" fill="#FFF8F2"/>
<path d="M0 35.0183C0 28.2801 2.23998 21.9538 7.04936 17.3144C11.8597 12.6741 19.1074 9.84866 28.8821 9.84863C38.0936 9.84863 45.4325 13.142 50.448 19.0694C55.4408 24.9699 58.0205 33.3473 58.0205 43.339C58.0205 53.067 56.5924 60.2523 55.1582 65.3698C54.443 67.9217 53.7266 69.9568 53.2017 71.4955C52.9367 72.2726 52.7279 72.9017 52.5848 73.4179C52.4371 73.9508 52.3877 74.2685 52.3877 74.4468C52.3877 74.7727 52.433 74.9256 52.456 74.9839C52.4944 74.9937 52.5685 75.008 52.693 75.008C52.8731 75.0079 53.1942 74.9277 53.6652 74.5887C54.1297 74.2544 54.6626 73.7225 55.2375 72.9707C56.3864 71.4685 57.5961 69.2301 58.698 66.3853C60.8981 60.7057 62.5994 52.7918 62.5994 43.9794C62.5994 33.8465 60.6922 24.2589 56.6463 17.8837L56.028 16.91L56.9598 16.2296C61.942 12.594 69.7611 9.84863 79.8322 9.84863C87.1976 9.84865 93.7246 11.7252 98.3915 16.6494C103.045 21.5598 105.642 29.2838 105.642 40.5228C105.642 51.6427 104.219 59.5244 102.785 64.9972C102.07 67.7286 101.354 69.8521 100.827 71.4417C100.561 72.2438 100.351 72.8847 100.207 73.4092C100.059 73.9503 100.009 74.2681 100.009 74.4468C100.009 74.7729 100.055 74.9257 100.078 74.9839C100.116 74.9936 100.19 75.008 100.314 75.008C100.494 75.008 100.815 74.9277 101.287 74.5887C101.751 74.2544 102.284 73.7225 102.859 72.9707C104.008 71.4685 105.217 69.2301 106.319 66.3853C108.519 60.7057 110.221 52.7918 110.221 43.9794C110.221 33.8465 108.313 24.2589 104.268 17.8837L103.65 16.91L104.581 16.2296C109.563 12.594 117.382 9.84864 127.453 9.84863C134.818 9.84863 141.464 11.7242 146.257 16.6364C151.043 21.5429 153.775 29.2689 153.775 40.5228C153.775 54.047 149.752 70.1993 141.149 83.006C132.522 95.8479 119.242 105.377 100.826 105.377C90.3193 105.377 82.5868 101.913 77.7564 95.6093C69.03 101.618 58.3528 105.377 45.5239 105.377C34.2402 105.377 25.5902 102.982 19.745 98.15C13.8574 93.2833 11.0094 86.1081 11.0094 77.0067C11.0095 72.9486 12.0041 68.2961 12.9548 63.685C13.9192 59.0077 14.8498 54.33 14.8498 49.996C14.8498 47.4968 14.2264 46.0264 13.3135 45.1603C12.3883 44.2826 10.9326 43.802 8.78417 43.802C6.60726 43.802 4.87004 44.4878 3.7235 45.5301L2.30844 46.8163L1.72327 44.9959C0.539798 41.3139 1.37549e-05 38.1135 0 35.0183ZM2.46182 35.0183C2.46183 37.3675 2.8056 39.8232 3.58118 42.6187C5.04934 41.7898 6.83006 41.3402 8.78417 41.3402C11.244 41.3402 13.437 41.8837 15.008 43.3741C16.5913 44.8763 17.3116 47.1187 17.3116 49.996C17.3116 54.6229 16.322 59.5465 15.3662 64.1822C14.3967 68.8839 13.4713 73.2562 13.4712 77.0067C13.4712 85.5714 16.1279 91.9663 21.3135 96.2527C26.5416 100.574 34.5334 102.915 45.5239 102.915C58.3144 102.915 68.8177 99.033 77.3203 92.9062L78.3421 92.17L79.0547 93.2086C83.2522 99.325 90.3745 102.915 100.826 102.915C118.255 102.915 130.834 93.9462 139.105 81.6332C147.4 69.2851 151.313 53.6256 151.313 40.5228C151.313 29.6302 148.669 22.6344 144.494 18.3558C140.326 14.0832 134.427 12.3105 127.453 12.3105C118.447 12.3105 111.496 14.6054 106.959 17.5784C110.929 24.469 112.683 34.1234 112.683 43.9794C112.682 53.089 110.927 61.3048 108.615 67.2744C107.46 70.2542 106.15 72.7204 104.814 74.4666C104.147 75.3389 103.447 76.0672 102.725 76.587C102.009 77.1019 101.19 77.4698 100.314 77.4698C99.6109 77.4698 98.8207 77.2912 98.2424 76.6408C97.694 76.0239 97.5472 75.2126 97.5471 74.4468C97.5471 73.9215 97.6737 73.3388 97.8332 72.7577C97.9973 72.1601 98.228 71.4566 98.49 70.6666C99.0189 69.0719 99.711 67.0186 100.404 64.3736C101.787 59.0932 103.18 51.4211 103.18 40.5228C103.18 29.6154 100.656 22.6175 96.6047 18.3429C92.5666 14.0821 86.8042 12.3105 79.8322 12.3105C70.8259 12.3105 63.8749 14.6055 59.3375 17.5784C63.3077 24.469 65.0612 34.1234 65.0612 43.9794C65.0612 53.089 63.3059 61.3048 60.9935 67.2744C59.8392 70.2542 58.5285 72.7204 57.193 74.4666C56.5259 75.3389 55.8255 76.0672 55.1034 76.587C54.3879 77.102 53.569 77.4698 52.693 77.4698C51.9895 77.4698 51.1989 77.2914 50.6207 76.6408C50.0723 76.0239 49.9259 75.2126 49.9259 74.4468C49.9259 73.9211 50.0521 73.3383 50.2124 72.7601C50.3774 72.1652 50.6086 71.4719 50.8716 70.7007C51.4029 69.1432 52.0948 67.178 52.7877 64.7053C54.1698 59.7738 55.5587 52.8131 55.5587 43.339C55.5587 33.7445 53.0813 25.9922 48.569 20.6595C44.0794 15.3536 37.4646 12.3105 28.8821 12.3105C19.5829 12.3105 13.0054 14.9897 8.75869 19.0862C4.51103 23.1838 2.46182 28.8271 2.46182 35.0183Z" fill="#444752"/>
</g>
<g filter="url(#filter2_d_343_617)">
<g filter="url(#filter3_n_343_617)">
<path d="M233.158 47.9064L223.974 42.6068C216.913 38.5305 208.742 38.1199 201.664 40.7849C201.786 33.9344 199.239 27.0401 194.009 21.8105L186.511 14.3133C184.497 12.2992 181.224 12.2992 179.21 14.3133L171.743 21.7799C166.504 27.0183 163.953 33.9256 164.079 40.7937C156.997 38.1242 148.817 38.5305 141.748 42.6112L132.564 47.9107C130.095 49.335 129.247 52.4938 130.672 54.9622L135.95 64.1065C139.681 70.5726 145.755 74.8367 152.479 76.4663C150.233 80.3285 148.94 84.8111 148.94 89.5995V100.203C148.94 103.056 151.251 105.367 154.104 105.367H164.665C171.944 105.367 178.529 102.401 183.278 97.6078C188.027 102.396 194.612 105.367 201.891 105.367H212.452C215.305 105.367 217.616 103.056 217.616 100.203V89.5995C217.616 84.7324 216.284 80.1843 213.972 76.2785C220.404 74.5221 226.171 70.3323 229.767 64.1021L235.045 54.9579C236.47 52.4894 235.627 49.3306 233.154 47.9064H233.158Z" fill="url(#paint0_radial_343_617)"/>
</g>
<path d="M180.081 15.1836C181.567 13.6983 183.952 13.6523 185.494 15.0449L185.641 15.1836L193.139 22.6807C198.122 27.6639 200.55 34.2316 200.434 40.7627L200.401 42.5762L202.098 41.9365C208.635 39.4751 216.145 39.7672 222.725 43.3193L223.358 43.6729L228.562 46.6758H228.55L232.539 48.9727C234.362 50.0228 235.023 52.3131 234.076 54.165L233.979 54.3428L228.701 63.4863V63.4873C225.274 69.4244 219.78 73.4163 213.648 75.0908L212.091 75.5166L212.913 76.9053C215.116 80.6279 216.386 84.9606 216.386 89.5996V100.203C216.386 102.376 214.625 104.136 212.452 104.136H201.892C194.955 104.136 188.681 101.306 184.152 96.7412L183.277 95.8594L182.403 96.7412C177.876 101.31 171.603 104.136 164.665 104.136H154.104C151.931 104.136 150.171 102.376 150.171 100.203V89.5996C150.171 85.036 151.403 80.7657 153.543 77.085L154.372 75.6582L152.769 75.2705C146.557 73.7651 140.933 69.9041 137.355 64.0625L137.016 63.4912L131.738 54.3467C130.688 52.526 131.26 50.211 133.006 49.082L133.179 48.9766L142.363 43.6777V43.6768C149.1 39.7885 156.893 39.4003 163.646 41.9453L165.344 42.5859L165.311 40.7705C165.194 34.4269 167.472 28.0535 172.153 23.123L172.613 22.6504L180.081 15.1836Z" fill="url(#paint1_radial_343_617)" stroke="#444752" stroke-width="2.46182"/>
<g filter="url(#filter4_f_343_617)">
<path d="M178.067 62.4292C174.218 64.6516 169.296 63.3327 167.074 59.4836V59.4836C166.852 59.0986 166.983 58.6065 167.368 58.3842V58.3842C171.218 56.1619 176.139 57.4807 178.362 61.3299V61.3299C178.584 61.7148 178.452 62.207 178.067 62.4292V62.4292Z" fill="#704FE6"/>
</g>
<g filter="url(#filter5_f_343_617)">
<path d="M187.605 62.4292C191.454 64.6516 196.376 63.3327 198.598 59.4836V59.4836C198.82 59.0986 198.688 58.6065 198.304 58.3842V58.3842C194.454 56.1619 189.532 57.4807 187.31 61.3299V61.3299C187.088 61.7148 187.22 62.207 187.605 62.4292V62.4292Z" fill="#704FE6"/>
</g>
<g filter="url(#filter6_f_343_617)">
<path d="M182.284 59.1818C179.142 56.039 179.142 50.9434 182.284 47.8006V47.8006C182.599 47.4863 183.108 47.4863 183.422 47.8006V47.8006C186.565 50.9434 186.565 56.039 183.422 59.1818V59.1818C183.108 59.4961 182.599 59.4961 182.284 59.1818V59.1818Z" fill="#704FE6"/>
</g>
<g filter="url(#filter7_f_343_617)">
<path d="M180.972 67.2571C181.095 71.7 177.594 75.4018 173.151 75.5251V75.5251C172.706 75.5375 172.336 75.1873 172.324 74.743V74.743C172.2 70.3001 175.702 66.5983 180.145 66.475V66.475C180.589 66.4626 180.96 66.8128 180.972 67.2571V67.2571Z" fill="#704FE6"/>
</g>
<g filter="url(#filter8_f_343_617)">
<path d="M184.872 67.2571C184.748 71.7 188.25 75.4018 192.693 75.5251V75.5251C193.137 75.5375 193.508 75.1873 193.52 74.743V74.743C193.643 70.3001 190.142 66.5983 185.699 66.475V66.475C185.254 66.4626 184.884 66.8128 184.872 67.2571V67.2571Z" fill="#704FE6"/>
</g>
<path d="M179.584 62.039C176.921 63.5767 173.515 62.6642 171.977 60.0008V60.0008C171.824 59.7344 171.915 59.3939 172.181 59.2401V59.2401C174.845 57.7024 178.25 58.6149 179.788 61.2783V61.2783C179.942 61.5447 179.851 61.8852 179.584 62.039V62.039Z" fill="white"/>
<path d="M186.181 62.039C188.845 63.5767 192.25 62.6642 193.788 60.0008V60.0008C193.942 59.7344 193.851 59.3939 193.584 59.2401V59.2401C190.921 57.7024 187.515 58.6149 185.978 61.2783V61.2783C185.824 61.5447 185.915 61.8852 186.181 62.039V62.039Z" fill="white"/>
<path d="M182.504 59.7911C180.329 57.6165 180.329 54.0906 182.504 51.916V51.916C182.721 51.6985 183.074 51.6985 183.291 51.916V51.916C185.466 54.0906 185.466 57.6165 183.291 59.7911V59.7911C183.074 60.0086 182.721 60.0086 182.504 59.7911V59.7911Z" fill="white"/>
<path d="M181.592 65.3799C181.677 68.4542 179.254 71.0155 176.18 71.1009V71.1009C175.872 71.1094 175.616 70.8671 175.608 70.5597V70.5597C175.522 67.4854 177.945 64.9241 181.019 64.8387V64.8387C181.327 64.8302 181.583 65.0725 181.592 65.3799V65.3799Z" fill="white"/>
<path d="M184.299 65.3799C184.214 68.4542 186.637 71.0155 189.711 71.1009V71.1009C190.018 71.1094 190.274 70.8671 190.283 70.5597V70.5597C190.368 67.4854 187.945 64.9241 184.871 64.8387V64.8387C184.564 64.8302 184.308 65.0725 184.299 65.3799V65.3799Z" fill="white"/>
</g>
<g filter="url(#filter9_d_343_617)">
<path d="M404.068 104.205C387.426 104.205 379.105 94.7322 379.105 75.53C379.105 70.9215 379.617 65.6729 380.769 60.2963C380.129 59.9122 379.361 59.6562 378.721 59.6562C375.393 59.6562 373.216 62.6005 373.216 72.7137V102.413H329.435L330.715 70.2814C331.356 53.6395 329.051 43.2703 326.875 35.7175C333.148 31.237 341.085 28.8047 349.406 28.8047C363.615 28.8047 371.936 35.4614 371.424 48.903H373.984C377.697 36.7416 387.554 28.8047 401.507 28.8047C416.741 28.8047 424.806 38.7898 423.27 55.0477L422.246 66.0569C421.862 69.7694 423.782 71.0495 426.598 71.0495C427.75 71.0495 429.799 70.6655 431.207 69.7694C432.359 72.9697 432.871 76.0421 432.871 78.9864C432.871 92.94 421.222 104.205 404.068 104.205Z" fill="#FFF8F2"/>
<path d="M371.987 72.713C371.987 67.6171 372.528 64.1199 373.613 61.8594C374.167 60.7047 374.886 59.824 375.791 59.2398C376.699 58.653 377.703 58.4249 378.723 58.4248C379.646 58.4248 380.632 58.7769 381.404 59.2403L382.159 59.6932L381.974 60.5534C380.84 65.8458 380.338 71.0083 380.338 75.5297C380.338 84.9807 382.389 91.8049 386.275 96.2585C390.132 100.68 395.983 102.974 404.07 102.974C420.667 102.974 431.642 92.1431 431.642 78.9858C431.642 76.5891 431.284 74.095 430.487 71.4989C429.092 72.0485 427.577 72.2798 426.6 72.2798C425.043 72.2798 423.469 71.9307 422.354 70.8152C421.213 69.6748 420.812 68.0001 421.022 65.9425L422.046 54.9331V54.9312L422.11 54.1941C422.693 46.6265 421.079 40.6807 417.729 36.6113C414.287 32.4312 408.851 30.0351 401.509 30.0351C388.11 30.0351 378.722 37.606 375.164 49.2618L374.898 50.1335H370.147L370.196 48.8555C370.442 42.4074 368.573 37.7783 365.124 34.7361C361.638 31.6626 356.344 30.0351 349.408 30.0351C341.634 30.0351 334.234 32.2209 328.302 36.2271C330.431 43.8064 332.57 54.1456 331.948 70.3281L331.947 70.33L330.718 101.182H371.987V72.713ZM374.449 103.643H328.156L329.487 70.2334L329.515 69.4655C330.05 53.4272 327.808 43.3931 325.694 36.0579L325.453 35.2212L326.161 34.7154C332.66 30.0735 340.852 27.5732 349.408 27.5732C356.68 27.5733 362.652 29.2745 366.752 32.8897C370.631 36.311 372.663 41.2934 372.679 47.6717H373.089C377.157 35.4969 387.337 27.5733 401.509 27.5732C409.402 27.5732 415.614 30.1698 419.63 35.0467C423.628 39.9031 425.285 46.8245 424.498 55.1629L423.473 66.1704L423.472 66.1829C423.302 67.8319 423.669 68.6491 424.094 69.0746C424.547 69.5272 425.342 69.8179 426.6 69.818C427.588 69.818 429.389 69.4678 430.548 68.7303L431.846 67.9043L432.367 69.352C433.566 72.6821 434.104 75.8953 434.104 78.9858C434.104 93.7357 421.781 105.435 404.07 105.435C395.514 105.435 388.883 102.993 384.42 97.8769C379.985 92.7935 377.876 85.2803 377.876 75.5297C377.876 71.1108 378.338 66.1257 379.367 61.0025C379.124 60.9258 378.9 60.8866 378.723 60.8866C378.078 60.8867 377.562 61.0267 377.126 61.3078C376.687 61.5917 376.238 62.0795 375.832 62.9249C374.997 64.6648 374.449 67.6962 374.449 72.713V103.643Z" fill="#444752"/>
</g>
<g filter="url(#filter10_d_343_617)">
<path d="M427.913 28.6266C427.145 25.2982 426.633 21.8418 426.633 18.3854C426.633 6.35203 433.418 1.23145 445.707 1.23145C451.596 1.23145 460.045 3.15166 467.853 3.15166C470.414 3.15166 473.742 2.51159 476.687 1.61549C477.967 4.68784 478.479 7.76019 478.479 11.3446C478.479 20.8177 474.894 24.018 466.189 24.018C464.013 24.018 459.148 23.634 451.852 23.634C441.995 23.634 432.393 25.8102 427.913 28.6266ZM456.716 103.899C440.074 103.899 430.345 94.4261 432.009 75.8639L433.034 64.7267C434.058 53.3334 431.113 42.9642 429.193 35.4113C434.826 30.9308 443.531 28.4985 453.132 28.4985C468.878 28.4985 478.223 36.3074 476.943 52.0532L475.79 65.8788C475.534 69.5912 476.943 70.7434 479.759 70.7434C480.911 70.7434 482.959 70.3593 484.367 69.4632C485.263 71.7675 486.032 75.7359 486.032 78.6803C486.032 92.6339 474.382 103.899 456.716 103.899Z" fill="#FFF8F2"/>
<path d="M484.801 78.6796C484.801 76.3761 484.297 73.3811 483.651 71.1908C482.255 71.7419 480.737 71.9736 479.759 71.9736C478.231 71.9735 476.73 71.6692 475.705 70.5229C474.697 69.3951 474.427 67.7569 474.563 65.7935L474.563 65.7849L474.564 65.7758L475.716 51.953L475.766 51.2457C476.21 44.0027 474.26 38.7501 470.576 35.2651C466.743 31.6387 460.825 29.7289 453.132 29.7289C444.063 29.7289 435.949 31.9436 430.588 35.8935C432.497 43.3427 435.27 53.5956 434.26 64.8362V64.8386L433.235 75.9726L433.236 75.9731C432.424 85.033 434.408 91.6553 438.405 96.0095C442.405 100.366 448.618 102.667 456.716 102.667C473.841 102.667 484.801 91.8232 484.801 78.6796ZM477.248 11.3441C477.248 8.29438 476.865 5.67292 475.946 3.10997C473.218 3.85956 470.253 4.38175 467.854 4.38175C463.862 4.38175 459.726 3.89178 455.907 3.41241C452.046 2.92775 448.555 2.46182 445.707 2.46182C439.702 2.46185 435.279 3.71786 432.365 6.22811C429.488 8.70683 427.864 12.5995 427.864 18.3848C427.864 21.1785 428.212 23.9878 428.767 26.7449C431.093 25.5903 434.163 24.6066 437.609 23.87C441.887 22.9557 446.838 22.4025 451.852 22.4025C455.522 22.4025 458.58 22.499 460.99 22.5954C463.427 22.6928 465.134 22.7867 466.19 22.7867C470.443 22.7867 473.097 21.9938 474.728 20.3629C476.361 18.7301 477.248 15.9777 477.248 11.3441ZM487.263 78.6796C487.263 93.4432 474.924 105.129 456.716 105.129C448.174 105.129 441.201 102.695 436.592 97.6741C431.98 92.6512 429.932 85.2555 430.784 75.7533L430.784 75.7504L431.808 64.6131C432.809 53.4692 429.932 43.3139 428 35.7142L427.805 34.9429L428.427 34.4472C434.349 29.7368 443.36 27.2671 453.132 27.267C461.184 27.267 467.813 29.2619 472.268 33.4764C476.754 37.7198 478.831 44.0164 478.17 52.1526L478.169 52.155L477.019 65.9628L477.001 66.2797C476.936 67.8094 477.225 68.5295 477.54 68.8824C477.86 69.2401 478.471 69.5117 479.759 69.5118C480.747 69.5118 482.548 69.1617 483.707 68.4241L484.972 67.6192L485.515 69.0165C486.468 71.4677 487.263 75.5878 487.263 78.6796ZM479.71 11.3441C479.71 16.1834 478.805 19.7678 476.469 22.1035C474.132 24.4409 470.641 25.2485 466.19 25.2485C465.069 25.2485 463.256 25.1498 460.892 25.0553C458.501 24.9596 455.478 24.8644 451.852 24.8644C447.009 24.8644 442.231 25.3996 438.124 26.2775C433.992 27.1605 430.632 28.3708 428.568 29.6683L427.103 30.5891L426.714 28.9028C425.932 25.5125 425.402 21.9599 425.402 18.3848C425.402 12.1368 427.171 7.45243 430.758 4.36252C434.309 1.30422 439.423 3.20084e-05 445.707 0C448.748 0 452.426 0.494381 456.214 0.969822C460.043 1.45055 464.036 1.91993 467.854 1.91993C470.249 1.91993 473.449 1.31384 476.328 0.43755L477.394 0.112994L477.823 1.14148C479.178 4.39219 479.71 7.63105 479.71 11.3441Z" fill="#444752"/>
</g>
<g filter="url(#filter11_d_343_617)">
<path d="M529.648 104.372C499.18 104.372 485.227 88.6263 485.227 67.5039C485.227 38.5726 509.933 27.8193 530.416 27.8193C553.458 27.8193 566.772 38.4445 566.772 57.7747C566.772 60.4631 566.388 63.4074 565.876 66.6078L527.855 67.8879C529.776 72.7524 534.256 75.1847 542.449 75.1847C548.21 75.1847 553.97 74.2886 561.651 69.8081C563.699 70.5762 565.748 74.9287 565.748 80.1773C565.748 90.4185 558.323 104.372 529.648 104.372ZM526.575 59.695V60.207L536.432 58.7989C537.585 53.9343 536.56 47.2776 532.592 47.2776C529.52 47.2776 526.575 52.1421 526.575 59.695Z" fill="#FFF8F2"/>
<path d="M565.538 57.7751C565.538 48.415 562.328 41.3024 556.452 36.5015C550.539 31.6701 541.765 29.0507 530.412 29.0507C520.359 29.0507 509.334 31.6941 500.857 37.8108C492.432 43.8908 486.454 53.4451 486.454 67.5041C486.454 77.7859 489.842 86.6443 496.832 92.945C503.837 99.2585 514.612 103.141 529.644 103.141C543.794 103.141 552.491 99.6991 557.636 95.1899C562.769 90.6908 564.513 85.0016 564.513 80.1777C564.513 77.7049 564.029 75.467 563.328 73.787C562.977 72.9468 562.584 72.2729 562.192 71.7849C561.995 71.5397 561.811 71.3583 561.649 71.2262C554.058 75.5244 548.236 76.4162 542.445 76.4162C538.244 76.4162 534.86 75.7951 532.237 74.4573C529.576 73.0998 527.773 71.0409 526.707 68.3403L526.066 66.7165L564.813 65.412C565.241 62.6196 565.538 60.0861 565.538 57.7751ZM532.589 46.0468C535.455 46.0469 536.972 48.482 537.618 50.896C538.286 53.3927 538.243 56.4823 537.627 59.0829L537.433 59.8989L525.341 61.6265V59.6955C525.341 55.7736 526.103 52.4638 527.335 50.0877C528.535 47.7744 530.363 46.0468 532.589 46.0468ZM532.589 48.5087C531.742 48.5087 530.561 49.2138 529.52 51.221C528.598 53.0001 527.926 55.5785 527.818 58.7853L535.397 57.703C535.763 55.633 535.724 53.34 535.24 51.5326C534.67 49.4022 533.691 48.5088 532.589 48.5087ZM567.999 57.7751C567.999 60.5675 567.601 63.5935 567.088 66.8026L566.928 67.8041L529.805 69.0538C530.652 70.4151 531.813 71.4777 533.355 72.2643C535.501 73.3587 538.454 73.9543 542.445 73.9544C548.02 73.9544 553.56 73.101 561.027 68.7451L561.533 68.4508L562.08 68.6557C562.873 68.9529 563.553 69.5472 564.112 70.2438C564.68 70.952 565.183 71.8388 565.6 72.8388C566.435 74.8393 566.975 77.4019 566.975 80.1777C566.975 85.5949 565.007 92.0032 559.259 97.0411C553.522 102.069 544.169 105.603 529.644 105.603C514.208 105.603 502.773 101.613 495.184 94.7735C487.581 87.9207 483.992 78.3447 483.992 67.5041C483.992 52.6319 490.368 42.3439 499.417 35.8144C508.414 29.3218 519.983 26.5889 530.412 26.5889C542.102 26.5889 551.507 29.282 558.01 34.5955C564.551 39.9399 567.999 47.8052 567.999 57.7751Z" fill="#444752"/>
</g>
<defs>
<filter id="filter0_d_343_617" x="223.535" y="27.573" width="113.574" height="82.7859" filterUnits="userSpaceOnUse" color-interpolation-filters="sRGB">
<feFlood flood-opacity="0" result="BackgroundImageFix"/>
<feColorMatrix in="SourceAlpha" type="matrix" values="0 0 0 0 0 0 0 0 0 0 0 0 0 0 0 0 0 0 127 0" result="hardAlpha"/>
<feOffset dx="4.92364" dy="4.92364"/>
<feComposite in2="hardAlpha" operator="out"/>
<feColorMatrix type="matrix" values="0 0 0 0 0.266667 0 0 0 0 0.278431 0 0 0 0 0.321569 0 0 0 1 0"/>
<feBlend mode="normal" in2="BackgroundImageFix" result="effect1_dropShadow_343_617"/>
<feBlend mode="normal" in="SourceGraphic" in2="effect1_dropShadow_343_617" result="shape"/>
</filter>
<filter id="filter1_d_343_617" x="0" y="9.84863" width="158.699" height="100.452" filterUnits="userSpaceOnUse" color-interpolation-filters="sRGB">
<feFlood flood-opacity="0" result="BackgroundImageFix"/>
<feColorMatrix in="SourceAlpha" type="matrix" values="0 0 0 0 0 0 0 0 0 0 0 0 0 0 0 0 0 0 127 0" result="hardAlpha"/>
<feOffset dx="4.92364" dy="4.92364"/>
<feComposite in2="hardAlpha" operator="out"/>
<feColorMatrix type="matrix" values="0 0 0 0 0.266667 0 0 0 0 0.278431 0 0 0 0 0.321569 0 0 0 1 0"/>
<feBlend mode="normal" in2="BackgroundImageFix" result="effect1_dropShadow_343_617"/>
<feBlend mode="normal" in="SourceGraphic" in2="effect1_dropShadow_343_617" result="shape"/>
</filter>
<filter id="filter2_d_343_617" x="129.98" y="12.8027" width="110.681" height="97.488" filterUnits="userSpaceOnUse" color-interpolation-filters="sRGB">
<feFlood flood-opacity="0" result="BackgroundImageFix"/>
<feColorMatrix in="SourceAlpha" type="matrix" values="0 0 0 0 0 0 0 0 0 0 0 0 0 0 0 0 0 0 127 0" result="hardAlpha"/>
<feOffset dx="4.92364" dy="4.92364"/>
<feComposite in2="hardAlpha" operator="out"/>
<feColorMatrix type="matrix" values="0 0 0 0 0.266667 0 0 0 0 0.278431 0 0 0 0 0.321569 0 0 0 1 0"/>
<feBlend mode="normal" in2="BackgroundImageFix" result="effect1_dropShadow_343_617"/>
<feBlend mode="normal" in="SourceGraphic" in2="effect1_dropShadow_343_617" result="shape"/>
</filter>
<filter id="filter3_n_343_617" x="129.98" y="12.8027" width="105.757" height="92.5644" filterUnits="userSpaceOnUse" color-interpolation-filters="sRGB">
<feFlood flood-opacity="0" result="BackgroundImageFix"/>
<feBlend mode="normal" in="SourceGraphic" in2="BackgroundImageFix" result="shape"/>
<feTurbulence type="fractalNoise" baseFrequency="9.3232402801513672 9.3232402801513672" stitchTiles="stitch" numOctaves="3" result="noise" seed="4479" />
<feColorMatrix in="noise" type="luminanceToAlpha" result="alphaNoise" />
<feComponentTransfer in="alphaNoise" result="coloredNoise1">
<feFuncA type="discrete" tableValues="0 0 0 0 0 0 0 0 0 0 0 0 1 1 1 1 1 1 1 1 1 1 1 1 1 1 1 1 1 1 1 1 1 1 1 1 1 1 0 0 0 0 0 0 0 0 0 0 0 0 0 0 0 0 0 0 0 0 0 0 0 0 0 0 0 0 0 0 0 0 0 0 0 0 0 0 0 0 0 0 0 0 0 0 0 0 0 0 0 0 0 0 0 0 0 0 0 0 0 0 "/>
</feComponentTransfer>
<feComposite operator="in" in2="shape" in="coloredNoise1" result="noise1Clipped" />
<feFlood flood-color="#704FE6" result="color1Flood" />
<feComposite operator="in" in2="noise1Clipped" in="color1Flood" result="color1" />
<feMerge result="effect1_noise_343_617">
<feMergeNode in="shape" />
<feMergeNode in="color1" />
</feMerge>
</filter>
<filter id="filter4_f_343_617" x="161.603" y="51.9417" width="22.2298" height="16.93" filterUnits="userSpaceOnUse" color-interpolation-filters="sRGB">
<feFlood flood-opacity="0" result="BackgroundImageFix"/>
<feBlend mode="normal" in="SourceGraphic" in2="BackgroundImageFix" result="shape"/>
<feGaussianBlur stdDeviation="2.68147" result="effect1_foregroundBlur_343_617"/>
</filter>
<filter id="filter5_f_343_617" x="181.839" y="51.9417" width="22.2298" height="16.93" filterUnits="userSpaceOnUse" color-interpolation-filters="sRGB">
<feFlood flood-opacity="0" result="BackgroundImageFix"/>
<feBlend mode="normal" in="SourceGraphic" in2="BackgroundImageFix" result="shape"/>
<feGaussianBlur stdDeviation="2.68147" result="effect1_foregroundBlur_343_617"/>
</filter>
<filter id="filter6_f_343_617" x="174.564" y="42.2019" width="16.5782" height="22.5785" filterUnits="userSpaceOnUse" color-interpolation-filters="sRGB">
<feFlood flood-opacity="0" result="BackgroundImageFix"/>
<feBlend mode="normal" in="SourceGraphic" in2="BackgroundImageFix" result="shape"/>
<feGaussianBlur stdDeviation="2.68147" result="effect1_foregroundBlur_343_617"/>
</filter>
<filter id="filter7_f_343_617" x="166.958" y="61.1117" width="19.3803" height="19.7767" filterUnits="userSpaceOnUse" color-interpolation-filters="sRGB">
<feFlood flood-opacity="0" result="BackgroundImageFix"/>
<feBlend mode="normal" in="SourceGraphic" in2="BackgroundImageFix" result="shape"/>
<feGaussianBlur stdDeviation="2.68147" result="effect1_foregroundBlur_343_617"/>
</filter>
<filter id="filter8_f_343_617" x="179.506" y="61.1117" width="19.3803" height="19.7767" filterUnits="userSpaceOnUse" color-interpolation-filters="sRGB">
<feFlood flood-opacity="0" result="BackgroundImageFix"/>
<feBlend mode="normal" in="SourceGraphic" in2="BackgroundImageFix" result="shape"/>
<feGaussianBlur stdDeviation="2.68147" result="effect1_foregroundBlur_343_617"/>
</filter>
<filter id="filter9_d_343_617" x="325.453" y="27.5732" width="113.574" height="82.7859" filterUnits="userSpaceOnUse" color-interpolation-filters="sRGB">
<feFlood flood-opacity="0" result="BackgroundImageFix"/>
<feColorMatrix in="SourceAlpha" type="matrix" values="0 0 0 0 0 0 0 0 0 0 0 0 0 0 0 0 0 0 127 0" result="hardAlpha"/>
<feOffset dx="4.92364" dy="4.92364"/>
<feComposite in2="hardAlpha" operator="out"/>
<feColorMatrix type="matrix" values="0 0 0 0 0.266667 0 0 0 0 0.278431 0 0 0 0 0.321569 0 0 0 1 0"/>
<feBlend mode="normal" in2="BackgroundImageFix" result="effect1_dropShadow_343_617"/>
<feBlend mode="normal" in="SourceGraphic" in2="effect1_dropShadow_343_617" result="shape"/>
</filter>
<filter id="filter10_d_343_617" x="425.402" y="0" width="66.784" height="110.053" filterUnits="userSpaceOnUse" color-interpolation-filters="sRGB">
<feFlood flood-opacity="0" result="BackgroundImageFix"/>
<feColorMatrix in="SourceAlpha" type="matrix" values="0 0 0 0 0 0 0 0 0 0 0 0 0 0 0 0 0 0 127 0" result="hardAlpha"/>
<feOffset dx="4.92364" dy="4.92364"/>
<feComposite in2="hardAlpha" operator="out"/>
<feColorMatrix type="matrix" values="0 0 0 0 0.266667 0 0 0 0 0.278431 0 0 0 0 0.321569 0 0 0 1 0"/>
<feBlend mode="normal" in2="BackgroundImageFix" result="effect1_dropShadow_343_617"/>
<feBlend mode="normal" in="SourceGraphic" in2="effect1_dropShadow_343_617" result="shape"/>
</filter>
<filter id="filter11_d_343_617" x="483.992" y="26.5889" width="88.9308" height="83.9379" filterUnits="userSpaceOnUse" color-interpolation-filters="sRGB">
<feFlood flood-opacity="0" result="BackgroundImageFix"/>
<feColorMatrix in="SourceAlpha" type="matrix" values="0 0 0 0 0 0 0 0 0 0 0 0 0 0 0 0 0 0 127 0" result="hardAlpha"/>
<feOffset dx="4.92364" dy="4.92364"/>
<feComposite in2="hardAlpha" operator="out"/>
<feColorMatrix type="matrix" values="0 0 0 0 0.266667 0 0 0 0 0.278431 0 0 0 0 0.321569 0 0 0 1 0"/>
<feBlend mode="normal" in2="BackgroundImageFix" result="effect1_dropShadow_343_617"/>
<feBlend mode="normal" in="SourceGraphic" in2="effect1_dropShadow_343_617" result="shape"/>
</filter>
<radialGradient id="paint0_radial_343_617" cx="0" cy="0" r="1" gradientUnits="userSpaceOnUse" gradientTransform="translate(180.46 63.2677) scale(54.2929 54.2889)">
<stop stop-color="#704FE6"/>
<stop offset="1" stop-color="#E0C9FF"/>
</radialGradient>
<radialGradient id="paint1_radial_343_617" cx="0" cy="0" r="1" gradientUnits="userSpaceOnUse" gradientTransform="translate(180.46 63.2677) scale(54.2929 54.2889)">
<stop stop-color="#704FE6"/>
<stop offset="1" stop-color="#E0C9FF"/>
</radialGradient>
</defs>
</svg>
