<svg width="53" height="47" viewBox="0 0 53 47" fill="none" xmlns="http://www.w3.org/2000/svg">
<path d="M25.0498 1.19043C25.7686 0.471719 26.9091 0.426959 27.6807 1.05566L27.8301 1.19043L31.5791 4.93945C34.0708 7.43107 35.2849 10.715 35.2266 13.9805L35.21 14.8867L36.0586 14.5674C39.3272 13.3367 43.0822 13.4819 46.3721 15.2578L46.6885 15.4346L46.6895 15.4355L49.291 16.9365H49.2852L51.2793 18.085C52.1616 18.5931 52.4992 19.6819 52.0908 20.5908L51.999 20.7695L49.3604 25.3418C47.6469 28.3105 44.8999 30.3073 41.834 31.1445L41.0557 31.3564L41.4658 32.0518C42.5672 33.913 43.2021 36.079 43.2021 38.3984V43.7002C43.2021 44.7867 42.322 45.667 41.2354 45.667H35.9551C32.4866 45.6669 29.35 44.2514 27.0859 41.9688L26.6484 41.5283L26.2119 41.9697C23.9481 44.2542 20.8106 45.667 17.3418 45.667H12.0615C10.975 45.6668 10.0948 44.7866 10.0947 43.7002V38.3984C10.0947 36.1168 10.7112 33.9819 11.7812 32.1416L12.1963 31.4277L11.3945 31.2334C8.28876 30.4807 5.47648 28.5507 3.6875 25.6299L3.51758 25.3447V25.3438L0.878906 20.7725C0.370471 19.8913 0.622448 18.7787 1.43066 18.1963L1.59961 18.0869L6.19141 15.4375C9.55956 13.4934 13.4558 13.2989 16.832 14.5713L17.6816 14.8916L17.665 13.9844C17.6065 10.8126 18.7454 7.6254 21.0859 5.16016L21.3164 4.92383L25.0498 1.19043Z" fill="#444752" stroke="#444752" stroke-width="1.23091"/>
<path d="M24.8036 24.6181C23.4719 25.387 21.7691 24.9307 21.0002 23.599V23.599C20.9233 23.4658 20.9689 23.2955 21.1021 23.2186V23.2186C22.4338 22.4498 24.1366 22.9061 24.9055 24.2378V24.2378C24.9824 24.3709 24.9368 24.5412 24.8036 24.6181V24.6181Z" fill="white"/>
<path d="M28.1022 24.6181C29.4339 25.387 31.1367 24.9307 31.9056 23.599V23.599C31.9825 23.4658 31.9368 23.2955 31.8037 23.2186V23.2186C30.472 22.4498 28.7691 22.9061 28.0003 24.2378V24.2378C27.9234 24.3709 27.969 24.5412 28.1022 24.6181V24.6181Z" fill="white"/>
<path d="M26.2635 23.4942C25.1761 22.4068 25.1761 20.6439 26.2635 19.5566V19.5566C26.3722 19.4479 26.5485 19.4479 26.6572 19.5566V19.5566C27.7445 20.6439 27.7445 22.4068 26.6572 23.4942V23.4942C26.5485 23.6029 26.3722 23.6029 26.2635 23.4942V23.4942Z" fill="white"/>
<path d="M25.8072 26.2886C25.8499 27.8257 24.6384 29.1064 23.1013 29.149V29.149C22.9476 29.1533 22.8195 29.0322 22.8153 28.8784V28.8784C22.7726 27.3413 23.9841 26.0606 25.5212 26.018V26.018C25.6749 26.0137 25.803 26.1348 25.8072 26.2886V26.2886Z" fill="white"/>
<path d="M27.161 26.2886C27.1183 27.8257 28.3298 29.1064 29.8669 29.149V29.149C30.0207 29.1533 30.1487 29.0322 30.153 28.8784V28.8784C30.1957 27.3413 28.9842 26.0606 27.4471 26.018V26.018C27.2934 26.0137 27.1653 26.1348 27.161 26.2886V26.2886Z" fill="white"/>
</svg>
