<svg width="573" height="111" viewBox="0 0 573 111" fill="none" xmlns="http://www.w3.org/2000/svg">
<g filter="url(#filter0_d_343_947)">
<path d="M302.15 104.205C285.508 104.205 277.187 94.7322 277.187 75.53C277.187 70.9215 277.699 65.6729 278.852 60.2963C278.211 59.9122 277.443 59.6562 276.803 59.6562C273.475 59.6562 271.299 62.6005 271.299 72.7137V102.413H227.518L228.798 70.2814C229.438 53.6395 227.134 43.2703 224.957 35.7175C231.23 31.237 239.167 28.8047 247.488 28.8047C261.698 28.8047 270.019 35.4614 269.506 48.903H272.067C275.779 36.7416 285.636 28.8047 299.59 28.8047C314.824 28.8047 322.889 38.7898 321.352 55.0477L320.328 66.0569C319.944 69.7694 321.864 71.0495 324.681 71.0495C325.833 71.0495 327.881 70.6655 329.289 69.7694C330.441 72.9697 330.953 76.0421 330.953 78.9864C330.953 92.94 319.304 104.205 302.15 104.205Z" fill="#CEC4FA"/>
<path d="M270.07 72.7128C270.07 67.6168 270.61 64.1196 271.695 61.8591C272.249 60.7045 272.968 59.8238 273.873 59.2396C274.782 58.6528 275.785 58.4246 276.805 58.4246C277.728 58.4246 278.714 58.7767 279.486 59.2401L280.241 59.693L280.057 60.5532C278.923 65.8456 278.42 71.0081 278.42 75.5294C278.42 84.9805 280.472 91.8047 284.357 96.2582C288.215 100.679 294.066 102.973 302.152 102.973C318.749 102.973 329.724 92.1429 329.724 78.9856C329.724 76.5889 329.366 74.0948 328.569 71.4987C327.175 72.0483 325.659 72.2796 324.682 72.2796C323.125 72.2795 321.551 71.9305 320.436 70.815C319.296 69.6746 318.894 67.9999 319.104 65.9423L320.129 54.9329V54.9309L320.192 54.1938C320.775 46.6263 319.162 40.6805 315.811 36.6111C312.37 32.431 306.933 30.0348 299.592 30.0348C286.192 30.0349 276.804 37.6058 273.246 49.2616L272.98 50.1333H268.229L268.278 48.8553C268.524 42.4072 266.655 37.7781 263.206 34.7359C259.721 31.6624 254.427 30.0349 247.49 30.0348C239.716 30.0348 232.317 32.2207 226.384 36.2269C228.513 43.8062 230.652 54.1454 230.03 70.3279L230.029 70.3298L228.8 101.181H270.07V72.7128ZM272.531 103.643H226.239L227.57 70.2332L227.597 69.4653C228.133 53.427 225.89 43.3929 223.776 36.0576L223.535 35.221L224.244 34.7152C230.742 30.0733 238.935 27.573 247.49 27.573C254.763 27.5731 260.734 29.2743 264.834 32.8895C268.713 36.3108 270.745 41.2932 270.761 47.6715H271.171C275.239 35.4967 285.42 27.5731 299.592 27.573C307.484 27.573 313.697 30.1696 317.712 35.0465C321.71 39.9029 323.368 46.8243 322.58 55.1627L321.556 66.1702L321.555 66.1827C321.384 67.8317 321.751 68.6489 322.176 69.0744C322.629 69.527 323.424 69.8177 324.682 69.8177C325.67 69.8177 327.471 69.4676 328.63 68.7301L329.928 67.9041L330.449 69.3518C331.648 72.6819 332.186 75.8951 332.186 78.9856C332.186 93.7355 319.863 105.435 302.152 105.435C293.597 105.435 286.966 102.993 282.502 97.8767C278.067 92.7933 275.958 85.2801 275.958 75.5294C275.958 71.1106 276.42 66.1255 277.45 61.0023C277.207 60.9256 276.982 60.8864 276.805 60.8864C276.161 60.8865 275.644 61.0265 275.209 61.3076C274.769 61.5915 274.32 62.0792 273.914 62.9246C273.079 64.6646 272.531 67.696 272.531 72.7128V103.643Z" fill="#444752"/>
</g>
<g filter="url(#filter1_d_343_947)">
<path d="M45.5239 104.145C23.2493 104.145 12.2401 94.6716 12.2401 77.0056C12.2401 69.1967 16.0805 58.9556 16.0805 49.9946C16.0805 44.6179 13.3922 42.5697 8.7837 42.5697C6.35142 42.5697 4.30318 43.3378 2.89502 44.6179C1.74289 41.0335 1.23083 37.9612 1.23083 35.0168C1.23083 22.0874 9.80781 11.0781 28.882 11.0781C46.676 11.0781 56.7892 23.7516 56.7892 43.3378C56.7892 62.54 51.1565 71.629 51.1565 74.4453C51.1565 75.7255 51.6686 76.2375 52.6927 76.2375C56.9172 76.2375 63.83 61.8999 63.83 43.9779C63.83 33.7367 61.9097 23.8796 57.6853 17.2228C62.4218 13.7664 69.9747 11.0781 79.8318 11.0781C94.1694 11.0781 104.411 18.375 104.411 40.5215C104.411 62.54 98.7779 71.629 98.7779 74.4453C98.7779 75.7255 99.29 76.2375 100.314 76.2375C104.539 76.2375 111.451 61.8999 111.451 43.9779C111.451 33.7367 109.531 23.8796 105.307 17.2228C110.043 13.7664 117.596 11.0781 127.453 11.0781C141.791 11.0781 152.544 18.375 152.544 40.5215C152.544 67.1485 136.67 104.145 100.826 104.145C90.0729 104.145 82.5201 100.432 78.0396 93.9035C69.3346 100.176 58.5814 104.145 45.5239 104.145Z" fill="#CEC4FA"/>
<path d="M0.000366211 35.0183C0.000366211 28.2801 2.24035 21.9538 7.04973 17.3144C11.8601 12.6741 19.1078 9.84866 28.8825 9.84863C38.0939 9.84863 45.4329 13.142 50.4484 19.0694C55.4412 24.9699 58.0209 33.3473 58.0209 43.339C58.0209 53.067 56.5928 60.2523 55.1586 65.3698C54.4434 67.9217 53.7269 69.9568 53.2021 71.4955C52.9371 72.2726 52.7283 72.9017 52.5852 73.4179C52.4375 73.9508 52.3881 74.2685 52.3881 74.4468C52.3881 74.7727 52.4334 74.9256 52.4563 74.9839C52.4947 74.9937 52.5688 75.008 52.6934 75.008C52.8734 75.0079 53.1946 74.9277 53.6656 74.5887C54.13 74.2544 54.663 73.7225 55.2379 72.9707C56.3867 71.4685 57.5964 69.2301 58.6984 66.3853C60.8985 60.7057 62.5998 52.7918 62.5998 43.9794C62.5998 33.8465 60.6925 24.2589 56.6467 17.8837L56.0284 16.91L56.9602 16.2296C61.9424 12.594 69.7615 9.84863 79.8325 9.84863C87.198 9.84865 93.725 11.7252 98.3918 16.6494C103.046 21.5598 105.642 29.2838 105.642 40.5228C105.642 51.6427 104.219 59.5244 102.786 64.9972C102.07 67.7286 101.354 69.8521 100.827 71.4417C100.561 72.2438 100.351 72.8847 100.207 73.4092C100.059 73.9503 100.009 74.2681 100.009 74.4468C100.009 74.7729 100.055 74.9257 100.078 74.9839C100.117 74.9936 100.191 75.008 100.315 75.008C100.495 75.008 100.816 74.9277 101.287 74.5887C101.751 74.2544 102.284 73.7225 102.859 72.9707C104.008 71.4685 105.218 69.2301 106.32 66.3853C108.52 60.7057 110.221 52.7918 110.221 43.9794C110.221 33.8465 108.314 24.2589 104.268 17.8837L103.65 16.91L104.581 16.2296C109.564 12.594 117.383 9.84864 127.454 9.84863C134.818 9.84863 141.464 11.7242 146.257 16.6364C151.044 21.5429 153.776 29.2689 153.776 40.5228C153.776 54.047 149.752 70.1993 141.149 83.006C132.522 95.8479 119.242 105.377 100.827 105.377C90.3196 105.377 82.5871 101.913 77.7568 95.6093C69.0303 101.618 58.3532 105.377 45.5243 105.377C34.2406 105.377 25.5905 102.982 19.7454 98.15C13.8578 93.2833 11.0098 86.1081 11.0098 77.0067C11.0098 72.9486 12.0045 68.2961 12.9552 63.685C13.9196 59.0077 14.8501 54.33 14.8501 49.996C14.8501 47.4968 14.2267 46.0264 13.3139 45.1603C12.3887 44.2826 10.933 43.802 8.78454 43.802C6.60763 43.802 4.87041 44.4878 3.72387 45.5301L2.3088 46.8163L1.72364 44.9959C0.540165 41.3139 0.000379966 38.1135 0.000366211 35.0183ZM2.46218 35.0183C2.4622 37.3675 2.80597 39.8232 3.58154 42.6187C5.04971 41.7898 6.83042 41.3402 8.78454 41.3402C11.2444 41.3402 13.4373 41.8837 15.0083 43.3741C16.5917 44.8763 17.3119 47.1187 17.3119 49.996C17.3119 54.6229 16.3223 59.5465 15.3665 64.1822C14.3971 68.8839 13.4716 73.2562 13.4716 77.0067C13.4716 85.5714 16.1282 91.9663 21.3138 96.2527C26.5419 100.574 34.5338 102.915 45.5243 102.915C58.3148 102.915 68.8181 99.033 77.3207 92.9062L78.3424 92.17L79.055 93.2086C83.2526 99.325 90.3749 102.915 100.827 102.915C118.255 102.915 130.834 93.9462 139.106 81.6332C147.401 69.2851 151.314 53.6256 151.314 40.5228C151.314 29.6302 148.669 22.6344 144.495 18.3558C140.326 14.0832 134.427 12.3105 127.454 12.3105C118.447 12.3105 111.497 14.6054 106.959 17.5784C110.929 24.469 112.683 34.1234 112.683 43.9794C112.683 53.089 110.928 61.3048 108.615 67.2744C107.461 70.2542 106.15 72.7204 104.815 74.4666C104.148 75.3389 103.447 76.0672 102.725 76.587C102.01 77.1019 101.191 77.4698 100.315 77.4698C99.6113 77.4698 98.821 77.2912 98.2428 76.6408C97.6944 76.0239 97.5475 75.2126 97.5475 74.4468C97.5475 73.9215 97.6741 73.3388 97.8336 72.7577C97.9977 72.1601 98.2284 71.4566 98.4904 70.6666C99.0193 69.0719 99.7114 67.0186 100.404 64.3736C101.787 59.0932 103.18 51.4211 103.18 40.5228C103.18 29.6154 100.656 22.6175 96.6051 18.3429C92.567 14.0821 86.8046 12.3105 79.8325 12.3105C70.8262 12.3105 63.8753 14.6055 59.3379 17.5784C63.308 24.469 65.0616 34.1234 65.0616 43.9794C65.0616 53.089 63.3062 61.3048 60.9938 67.2744C59.8396 70.2542 58.5288 72.7204 57.1934 74.4666C56.5262 75.3389 55.8259 76.0672 55.1037 76.587C54.3883 77.102 53.5694 77.4698 52.6934 77.4698C51.9899 77.4698 51.1993 77.2914 50.621 76.6408C50.0726 76.0239 49.9263 75.2126 49.9262 74.4468C49.9262 73.9211 50.0525 73.3383 50.2128 72.7601C50.3777 72.1652 50.609 71.4719 50.872 70.7007C51.4033 69.1432 52.0951 67.178 52.7881 64.7053C54.1702 59.7738 55.5591 52.8131 55.5591 43.339C55.5591 33.7445 53.0816 25.9922 48.5693 20.6595C44.0798 15.3536 37.465 12.3105 28.8825 12.3105C19.5833 12.3105 13.0057 14.9897 8.75905 19.0862C4.5114 23.1838 2.46218 28.8271 2.46218 35.0183Z" fill="#444752"/>
</g>
<g filter="url(#filter2_d_343_947)">
<g filter="url(#filter3_n_343_947)">
<path d="M233.158 47.9064L223.974 42.6068C216.913 38.5305 208.743 38.1199 201.664 40.7849C201.787 33.9344 199.239 27.0401 194.009 21.8105L186.512 14.3133C184.497 12.2992 181.225 12.2992 179.211 14.3133L171.743 21.7799C166.505 27.0183 163.953 33.9256 164.08 40.7937C156.997 38.1242 148.818 38.5305 141.748 42.6112L132.564 47.9107C130.095 49.335 129.248 52.4938 130.672 54.9622L135.95 64.1065C139.682 70.5726 145.755 74.8367 152.479 76.4663C150.233 80.3285 148.94 84.8111 148.94 89.5995V100.203C148.94 103.056 151.251 105.367 154.105 105.367H164.665C171.944 105.367 178.529 102.401 183.278 97.6078C188.028 102.396 194.612 105.367 201.892 105.367H212.452C215.305 105.367 217.617 103.056 217.617 100.203V89.5995C217.617 84.7324 216.284 80.1843 213.973 76.2785C220.404 74.5221 226.172 70.3323 229.768 64.1021L235.046 54.9579C236.47 52.4894 235.627 49.3306 233.154 47.9064H233.158Z" fill="url(#paint0_radial_343_947)"/>
</g>
<path d="M180.081 15.1836C181.567 13.6983 183.953 13.6523 185.495 15.0449L185.641 15.1836L193.139 22.6807C198.123 27.6639 200.551 34.2316 200.434 40.7627L200.402 42.5762L202.098 41.9365C208.635 39.4751 216.145 39.7672 222.725 43.3193L223.359 43.6729L228.563 46.6758H228.55L232.539 48.9727C234.363 50.0228 235.024 52.3131 234.077 54.165L233.98 54.3428L228.702 63.4863V63.4873C225.275 69.4244 219.78 73.4163 213.649 75.0908L212.091 75.5166L212.913 76.9053C215.116 80.6279 216.386 84.9606 216.386 89.5996V100.203C216.386 102.376 214.626 104.136 212.453 104.136H201.892C194.955 104.136 188.681 101.306 184.153 96.7412L183.278 95.8594L182.404 96.7412C177.876 101.31 171.603 104.136 164.665 104.136H154.105C151.931 104.136 150.171 102.376 150.171 100.203V89.5996C150.171 85.036 151.403 80.7657 153.543 77.085L154.372 75.6582L152.769 75.2705C146.557 73.7651 140.934 69.9041 137.356 64.0625L137.016 63.4912L131.739 54.3467C130.688 52.526 131.26 50.211 133.006 49.082L133.179 48.9766L142.364 43.6777V43.6768C149.1 39.7885 156.893 39.4003 163.646 41.9453L165.344 42.5859L165.311 40.7705C165.194 34.4269 167.472 28.0535 172.154 23.123L172.614 22.6504L180.081 15.1836Z" fill="white" stroke="#444752" stroke-width="2.46182"/>
<g filter="url(#filter4_d_343_947)">
<path d="M171.545 60.2511C171.253 59.7457 171.426 59.0996 171.932 58.8077C174.834 57.132 178.546 58.1264 180.221 61.0289C180.513 61.5344 180.34 62.1805 179.835 62.4723C176.932 64.1479 173.221 63.1535 171.545 60.2511Z" fill="white" stroke="#ECFF00"/>
<path d="M194.221 60.2511C194.513 59.7457 194.34 59.0996 193.835 58.8077C190.932 57.132 187.221 58.1264 185.545 61.0289C185.253 61.5344 185.427 62.1805 185.932 62.4723C188.834 64.1479 192.546 63.1535 194.221 60.2511Z" fill="white" stroke="#ECFF00"/>
<path d="M182.151 51.5628C182.563 51.1502 183.232 51.1503 183.645 51.5628C186.015 53.9328 186.015 57.7749 183.645 60.1448C183.232 60.5574 182.563 60.5575 182.151 60.1448C179.781 57.7749 179.781 53.9327 182.151 51.5628Z" fill="white" stroke="#ECFF00"/>
<path d="M176.194 71.6009C175.611 71.6171 175.125 71.1573 175.109 70.574C175.016 67.2237 177.656 64.4326 181.006 64.3395C181.59 64.3235 182.076 64.7831 182.092 65.3664C182.185 68.7166 179.544 71.5078 176.194 71.6009Z" fill="white" stroke="#ECFF00"/>
<path d="M189.697 71.6009C190.281 71.6171 190.767 71.1573 190.783 70.574C190.876 67.2237 188.236 64.4326 184.885 64.3395C184.302 64.3235 183.816 64.7831 183.8 65.3664C183.707 68.7166 186.347 71.5078 189.697 71.6009Z" fill="white" stroke="#ECFF00"/>
</g>
</g>
<g filter="url(#filter5_d_343_947)">
<path d="M404.068 104.205C387.426 104.205 379.105 94.7322 379.105 75.53C379.105 70.9215 379.617 65.6729 380.77 60.2963C380.13 59.9122 379.361 59.6562 378.721 59.6562C375.393 59.6562 373.217 62.6005 373.217 72.7137V102.413H329.436L330.716 70.2814C331.356 53.6395 329.052 43.2703 326.875 35.7175C333.148 31.237 341.085 28.8047 349.406 28.8047C363.616 28.8047 371.937 35.4614 371.425 48.903H373.985C377.697 36.7416 387.554 28.8047 401.508 28.8047C416.742 28.8047 424.807 38.7898 423.27 55.0477L422.246 66.0569C421.862 69.7694 423.783 71.0495 426.599 71.0495C427.751 71.0495 429.799 70.6655 431.207 69.7694C432.359 72.9697 432.872 76.0421 432.872 78.9864C432.872 92.94 421.222 104.205 404.068 104.205Z" fill="#CEC4FA"/>
<path d="M371.988 72.713C371.988 67.6171 372.528 64.1199 373.613 61.8594C374.168 60.7047 374.887 59.824 375.791 59.2398C376.7 58.653 377.703 58.4249 378.723 58.4248C379.646 58.4248 380.632 58.7769 381.405 59.2403L382.16 59.6932L381.975 60.5534C380.841 65.8458 380.338 71.0083 380.338 75.5297C380.338 84.9807 382.39 91.8049 386.275 96.2585C390.133 100.68 395.984 102.974 404.07 102.974C420.667 102.974 431.643 92.1431 431.643 78.9858C431.643 76.5891 431.284 74.095 430.487 71.4989C429.093 72.0485 427.577 72.2798 426.601 72.2798C425.043 72.2798 423.47 71.9307 422.354 70.8152C421.214 69.6748 420.812 68.0001 421.023 65.9425L422.047 54.9331V54.9312L422.11 54.1941C422.693 46.6265 421.08 40.6807 417.729 36.6113C414.288 32.4312 408.851 30.0351 401.51 30.0351C388.11 30.0351 378.722 37.606 375.164 49.2618L374.898 50.1335H370.148L370.197 48.8555C370.442 42.4074 368.574 37.7783 365.124 34.7361C361.639 31.6626 356.345 30.0351 349.408 30.0351C341.635 30.0351 334.235 32.2209 328.302 36.2271C330.431 43.8064 332.57 54.1456 331.948 70.3281L331.948 70.33L330.719 101.182H371.988V72.713ZM374.45 103.643H328.157L329.488 70.2334L329.516 69.4655C330.051 53.4272 327.808 43.3931 325.695 36.0579L325.454 35.2212L326.162 34.7154C332.661 30.0735 340.853 27.5732 349.408 27.5732C356.681 27.5733 362.652 29.2745 366.752 32.8897C370.632 36.311 372.664 41.2934 372.68 47.6717H373.089C377.157 35.4969 387.338 27.5733 401.51 27.5732C409.402 27.5732 415.615 30.1698 419.63 35.0467C423.629 39.9031 425.286 46.8245 424.498 55.1629L423.474 66.1704L423.473 66.1829C423.302 67.8319 423.669 68.6491 424.095 69.0746C424.547 69.5272 425.342 69.8179 426.601 69.818C427.589 69.818 429.389 69.4678 430.548 68.7303L431.846 67.9043L432.368 69.352C433.567 72.6821 434.104 75.8953 434.104 78.9858C434.104 93.7357 421.781 105.435 404.07 105.435C395.515 105.435 388.884 102.993 384.42 97.8769C379.985 92.7935 377.876 85.2803 377.876 75.5297C377.876 71.1108 378.338 66.1257 379.368 61.0025C379.125 60.9258 378.9 60.8866 378.723 60.8866C378.079 60.8867 377.562 61.0267 377.127 61.3078C376.687 61.5917 376.238 62.0795 375.832 62.9249C374.997 64.6648 374.45 67.6962 374.45 72.713V103.643Z" fill="#444752"/>
</g>
<g filter="url(#filter6_d_343_947)">
<path d="M427.913 28.6266C427.145 25.2982 426.633 21.8418 426.633 18.3854C426.633 6.35203 433.418 1.23145 445.707 1.23145C451.596 1.23145 460.045 3.15166 467.854 3.15166C470.414 3.15166 473.743 2.51159 476.687 1.61549C477.967 4.68784 478.479 7.76019 478.479 11.3446C478.479 20.8177 474.895 24.018 466.19 24.018C464.014 24.018 459.149 23.634 451.852 23.634C441.995 23.634 432.394 25.8102 427.913 28.6266ZM456.717 103.899C440.075 103.899 430.346 94.4261 432.01 75.8639L433.034 64.7267C434.058 53.3334 431.114 42.9642 429.194 35.4113C434.826 30.9308 443.531 28.4985 453.132 28.4985C468.878 28.4985 478.223 36.3074 476.943 52.0532L475.791 65.8788C475.535 69.5912 476.943 70.7434 479.759 70.7434C480.911 70.7434 482.96 70.3593 484.368 69.4632C485.264 71.7675 486.032 75.7359 486.032 78.6803C486.032 92.6339 474.383 103.899 456.717 103.899Z" fill="#CEC4FA"/>
<path d="M484.801 78.6796C484.801 76.3761 484.297 73.3811 483.651 71.1908C482.256 71.7419 480.737 71.9736 479.759 71.9736C478.232 71.9735 476.73 71.6692 475.706 70.5229C474.698 69.3951 474.428 67.7569 474.563 65.7935L474.564 65.7849L474.565 65.7758L475.716 51.953L475.767 51.2457C476.211 44.0027 474.261 38.7501 470.577 35.2651C466.743 31.6387 460.826 29.7289 453.132 29.7289C444.064 29.7289 435.949 31.9436 430.588 35.8935C432.498 43.3427 435.27 53.5956 434.26 64.8362V64.8386L433.236 75.9726L433.236 75.9731C432.424 85.033 434.408 91.6553 438.406 96.0095C442.405 100.366 448.618 102.667 456.717 102.667C473.841 102.667 484.801 91.8232 484.801 78.6796ZM477.249 11.3441C477.249 8.29438 476.865 5.67292 475.947 3.10997C473.218 3.85956 470.253 4.38175 467.854 4.38175C463.863 4.38175 459.727 3.89178 455.908 3.41241C452.047 2.92775 448.556 2.46182 445.708 2.46182C439.703 2.46185 435.28 3.71786 432.366 6.22811C429.488 8.70683 427.865 12.5995 427.865 18.3848C427.865 21.1785 428.212 23.9878 428.767 26.7449C431.093 25.5903 434.164 24.6066 437.61 23.87C441.887 22.9557 446.838 22.4025 451.852 22.4025C455.523 22.4025 458.581 22.499 460.991 22.5954C463.427 22.6928 465.135 22.7867 466.19 22.7867C470.444 22.7867 473.098 21.9938 474.729 20.3629C476.361 18.7301 477.249 15.9777 477.249 11.3441ZM487.263 78.6796C487.263 93.4432 474.925 105.129 456.717 105.129C448.174 105.129 441.201 102.695 436.592 97.6741C431.981 92.6512 429.932 85.2555 430.784 75.7533L430.785 75.7504L431.808 64.6131C432.809 53.4692 429.933 43.3139 428.001 35.7142L427.805 34.9429L428.428 34.4472C434.349 29.7368 443.361 27.2671 453.132 27.267C461.185 27.267 467.813 29.2619 472.269 33.4764C476.755 37.7198 478.832 44.0164 478.17 52.1526L478.17 52.155L477.019 65.9628L477.001 66.2797C476.937 67.8094 477.226 68.5295 477.541 68.8824C477.861 69.2401 478.471 69.5117 479.759 69.5118C480.747 69.5118 482.549 69.1617 483.708 68.4241L484.972 67.6192L485.515 69.0165C486.469 71.4677 487.263 75.5878 487.263 78.6796ZM479.71 11.3441C479.71 16.1834 478.805 19.7678 476.47 22.1035C474.132 24.4409 470.641 25.2485 466.19 25.2485C465.069 25.2485 463.256 25.1498 460.892 25.0553C458.502 24.9596 455.479 24.8644 451.852 24.8644C447.01 24.8644 442.231 25.3996 438.124 26.2775C433.993 27.1605 430.633 28.3708 428.569 29.6683L427.104 30.5891L426.715 28.9028C425.932 25.5125 425.403 21.9599 425.403 18.3848C425.403 12.1368 427.172 7.45243 430.759 4.36252C434.309 1.30422 439.423 3.20084e-05 445.708 0C448.748 0 452.426 0.494381 456.214 0.969822C460.044 1.45055 464.037 1.91993 467.854 1.91993C470.249 1.91993 473.45 1.31384 476.329 0.43755L477.395 0.112994L477.824 1.14148C479.178 4.39219 479.71 7.63105 479.71 11.3441Z" fill="#444752"/>
</g>
<g filter="url(#filter7_d_343_947)">
<path d="M529.648 104.783C499.181 104.783 485.227 89.0374 485.227 67.915C485.227 38.9837 509.934 28.2305 530.416 28.2305C553.459 28.2305 566.772 38.8557 566.772 58.1859C566.772 60.8742 566.388 63.8185 565.876 67.0189L527.856 68.299C529.776 73.1636 534.257 75.5959 542.45 75.5959C548.21 75.5959 553.971 74.6998 561.652 70.2193C563.7 70.9873 565.748 75.3398 565.748 80.5884C565.748 90.8296 558.323 104.783 529.648 104.783ZM526.576 60.1061V60.6182L536.433 59.21C537.585 54.3454 536.561 47.6887 532.592 47.6887C529.52 47.6887 526.576 52.5532 526.576 60.1061Z" fill="#CEC4FA"/>
<path d="M565.538 58.1862C565.538 48.8261 562.329 41.7135 556.453 36.9127C550.539 32.0812 541.765 29.4619 530.413 29.4618C520.36 29.4618 509.334 32.1052 500.858 38.2219C492.432 44.3019 486.455 53.8563 486.454 67.9152C486.454 78.197 489.842 87.0555 496.833 93.3561C503.837 99.6696 514.613 103.552 529.645 103.552C543.795 103.552 552.492 100.11 557.637 95.6011C562.77 91.1019 564.514 85.4127 564.514 80.5888C564.514 78.116 564.03 75.8781 563.329 74.1982C562.978 73.358 562.584 72.684 562.192 72.196C561.996 71.9508 561.812 71.7694 561.649 71.6373C554.059 75.9355 548.237 76.8273 542.446 76.8273C538.245 76.8273 534.86 76.2062 532.238 74.8684C529.576 73.5109 527.774 71.452 526.708 68.7514L526.067 67.1276L564.813 65.8232C565.241 63.0307 565.538 60.4972 565.538 58.1862ZM532.589 46.458C535.455 46.4581 536.972 48.8931 537.618 51.3071C538.287 53.8038 538.243 56.8934 537.627 59.4941L537.434 60.31L525.341 62.0376V60.1067C525.341 56.1847 526.104 52.8749 527.336 50.4988C528.535 48.1855 530.363 46.458 532.589 46.458ZM532.589 48.9198C531.742 48.9198 530.562 49.6249 529.521 51.6321C528.598 53.4112 527.926 55.9896 527.818 59.1965L535.398 58.1141C535.763 56.0441 535.724 53.7511 535.24 51.9437C534.67 49.8134 533.691 48.9199 532.589 48.9198ZM568 58.1862C568 60.9786 567.602 64.0047 567.088 67.2137L566.928 68.2153L529.805 69.4649C530.652 70.8263 531.814 71.8888 533.356 72.6754C535.502 73.7699 538.454 74.3655 542.446 74.3655C548.02 74.3655 553.561 73.5121 561.028 69.1562L561.533 68.862L562.08 69.0668C562.873 69.364 563.553 69.9583 564.112 70.655C564.681 71.3631 565.183 72.25 565.601 73.25C566.435 75.2504 566.976 77.8131 566.976 80.5888C566.976 86.006 565.007 92.4144 559.259 97.4522C553.523 102.48 544.17 106.014 529.645 106.014C514.209 106.014 502.774 102.025 495.185 95.1847C487.582 88.3318 483.993 78.7558 483.993 67.9152C483.993 53.043 490.369 42.755 499.417 36.2256C508.414 29.733 519.984 27 530.413 27C542.103 27 551.507 29.6931 558.011 35.0067C564.552 40.351 568 48.2163 568 58.1862Z" fill="#444752"/>
</g>
<defs>
<filter id="filter0_d_343_947" x="223.535" y="27.573" width="113.575" height="82.7859" filterUnits="userSpaceOnUse" color-interpolation-filters="sRGB">
<feFlood flood-opacity="0" result="BackgroundImageFix"/>
<feColorMatrix in="SourceAlpha" type="matrix" values="0 0 0 0 0 0 0 0 0 0 0 0 0 0 0 0 0 0 127 0" result="hardAlpha"/>
<feOffset dx="4.92364" dy="4.92364"/>
<feComposite in2="hardAlpha" operator="out"/>
<feColorMatrix type="matrix" values="0 0 0 0 0.266667 0 0 0 0 0.278431 0 0 0 0 0.321569 0 0 0 1 0"/>
<feBlend mode="normal" in2="BackgroundImageFix" result="effect1_dropShadow_343_947"/>
<feBlend mode="normal" in="SourceGraphic" in2="effect1_dropShadow_343_947" result="shape"/>
</filter>
<filter id="filter1_d_343_947" x="0.000366211" y="9.84863" width="158.699" height="100.452" filterUnits="userSpaceOnUse" color-interpolation-filters="sRGB">
<feFlood flood-opacity="0" result="BackgroundImageFix"/>
<feColorMatrix in="SourceAlpha" type="matrix" values="0 0 0 0 0 0 0 0 0 0 0 0 0 0 0 0 0 0 127 0" result="hardAlpha"/>
<feOffset dx="4.92364" dy="4.92364"/>
<feComposite in2="hardAlpha" operator="out"/>
<feColorMatrix type="matrix" values="0 0 0 0 0.266667 0 0 0 0 0.278431 0 0 0 0 0.321569 0 0 0 1 0"/>
<feBlend mode="normal" in2="BackgroundImageFix" result="effect1_dropShadow_343_947"/>
<feBlend mode="normal" in="SourceGraphic" in2="effect1_dropShadow_343_947" result="shape"/>
</filter>
<filter id="filter2_d_343_947" x="129.981" y="12.8027" width="110.681" height="97.488" filterUnits="userSpaceOnUse" color-interpolation-filters="sRGB">
<feFlood flood-opacity="0" result="BackgroundImageFix"/>
<feColorMatrix in="SourceAlpha" type="matrix" values="0 0 0 0 0 0 0 0 0 0 0 0 0 0 0 0 0 0 127 0" result="hardAlpha"/>
<feOffset dx="4.92364" dy="4.92364"/>
<feComposite in2="hardAlpha" operator="out"/>
<feColorMatrix type="matrix" values="0 0 0 0 0.266667 0 0 0 0 0.278431 0 0 0 0 0.321569 0 0 0 1 0"/>
<feBlend mode="normal" in2="BackgroundImageFix" result="effect1_dropShadow_343_947"/>
<feBlend mode="normal" in="SourceGraphic" in2="effect1_dropShadow_343_947" result="shape"/>
</filter>
<filter id="filter3_n_343_947" x="129.981" y="12.8027" width="105.757" height="92.5644" filterUnits="userSpaceOnUse" color-interpolation-filters="sRGB">
<feFlood flood-opacity="0" result="BackgroundImageFix"/>
<feBlend mode="normal" in="SourceGraphic" in2="BackgroundImageFix" result="shape"/>
<feTurbulence type="fractalNoise" baseFrequency="9.3232402801513672 9.3232402801513672" stitchTiles="stitch" numOctaves="3" result="noise" seed="4479" />
<feColorMatrix in="noise" type="luminanceToAlpha" result="alphaNoise" />
<feComponentTransfer in="alphaNoise" result="coloredNoise1">
<feFuncA type="discrete" tableValues="0 0 0 0 0 0 0 0 0 0 0 0 1 1 1 1 1 1 1 1 1 1 1 1 1 1 1 1 1 1 1 1 1 1 1 1 1 1 0 0 0 0 0 0 0 0 0 0 0 0 0 0 0 0 0 0 0 0 0 0 0 0 0 0 0 0 0 0 0 0 0 0 0 0 0 0 0 0 0 0 0 0 0 0 0 0 0 0 0 0 0 0 0 0 0 0 0 0 0 0 "/>
</feComponentTransfer>
<feComposite operator="in" in2="shape" in="coloredNoise1" result="noise1Clipped" />
<feFlood flood-color="#704FE6" result="color1Flood" />
<feComposite operator="in" in2="noise1Clipped" in="color1Flood" result="color1" />
<feMerge result="effect1_noise_343_947">
<feMergeNode in="shape" />
<feMergeNode in="color1" />
</feMerge>
</filter>
<filter id="filter4_d_343_947" x="160.903" y="40.7532" width="43.9603" height="41.3481" filterUnits="userSpaceOnUse" color-interpolation-filters="sRGB">
<feFlood flood-opacity="0" result="BackgroundImageFix"/>
<feColorMatrix in="SourceAlpha" type="matrix" values="0 0 0 0 0 0 0 0 0 0 0 0 0 0 0 0 0 0 127 0" result="hardAlpha"/>
<feOffset/>
<feGaussianBlur stdDeviation="5"/>
<feComposite in2="hardAlpha" operator="out"/>
<feColorMatrix type="matrix" values="0 0 0 0 0.933334 0 0 0 0 1 0 0 0 0 0 0 0 0 1 0"/>
<feBlend mode="normal" in2="BackgroundImageFix" result="effect1_dropShadow_343_947"/>
<feBlend mode="normal" in="SourceGraphic" in2="effect1_dropShadow_343_947" result="shape"/>
</filter>
<filter id="filter5_d_343_947" x="325.454" y="27.5732" width="113.575" height="82.7859" filterUnits="userSpaceOnUse" color-interpolation-filters="sRGB">
<feFlood flood-opacity="0" result="BackgroundImageFix"/>
<feColorMatrix in="SourceAlpha" type="matrix" values="0 0 0 0 0 0 0 0 0 0 0 0 0 0 0 0 0 0 127 0" result="hardAlpha"/>
<feOffset dx="4.92364" dy="4.92364"/>
<feComposite in2="hardAlpha" operator="out"/>
<feColorMatrix type="matrix" values="0 0 0 0 0.266667 0 0 0 0 0.278431 0 0 0 0 0.321569 0 0 0 1 0"/>
<feBlend mode="normal" in2="BackgroundImageFix" result="effect1_dropShadow_343_947"/>
<feBlend mode="normal" in="SourceGraphic" in2="effect1_dropShadow_343_947" result="shape"/>
</filter>
<filter id="filter6_d_343_947" x="425.403" y="0" width="66.784" height="110.053" filterUnits="userSpaceOnUse" color-interpolation-filters="sRGB">
<feFlood flood-opacity="0" result="BackgroundImageFix"/>
<feColorMatrix in="SourceAlpha" type="matrix" values="0 0 0 0 0 0 0 0 0 0 0 0 0 0 0 0 0 0 127 0" result="hardAlpha"/>
<feOffset dx="4.92364" dy="4.92364"/>
<feComposite in2="hardAlpha" operator="out"/>
<feColorMatrix type="matrix" values="0 0 0 0 0.266667 0 0 0 0 0.278431 0 0 0 0 0.321569 0 0 0 1 0"/>
<feBlend mode="normal" in2="BackgroundImageFix" result="effect1_dropShadow_343_947"/>
<feBlend mode="normal" in="SourceGraphic" in2="effect1_dropShadow_343_947" result="shape"/>
</filter>
<filter id="filter7_d_343_947" x="483.993" y="27" width="88.9307" height="83.9379" filterUnits="userSpaceOnUse" color-interpolation-filters="sRGB">
<feFlood flood-opacity="0" result="BackgroundImageFix"/>
<feColorMatrix in="SourceAlpha" type="matrix" values="0 0 0 0 0 0 0 0 0 0 0 0 0 0 0 0 0 0 127 0" result="hardAlpha"/>
<feOffset dx="4.92364" dy="4.92364"/>
<feComposite in2="hardAlpha" operator="out"/>
<feColorMatrix type="matrix" values="0 0 0 0 0.266667 0 0 0 0 0.278431 0 0 0 0 0.321569 0 0 0 1 0"/>
<feBlend mode="normal" in2="BackgroundImageFix" result="effect1_dropShadow_343_947"/>
<feBlend mode="normal" in="SourceGraphic" in2="effect1_dropShadow_343_947" result="shape"/>
</filter>
<radialGradient id="paint0_radial_343_947" cx="0" cy="0" r="1" gradientUnits="userSpaceOnUse" gradientTransform="translate(180.46 63.2677) scale(54.2929 54.2889)">
<stop stop-color="#704FE6"/>
<stop offset="1" stop-color="#E0C9FF"/>
</radialGradient>
</defs>
</svg>
