<svg width="35" height="35" viewBox="0 0 35 35" fill="none" xmlns="http://www.w3.org/2000/svg">
<path d="M17.085 8.32443C12.2379 8.32443 8.32815 12.2341 8.32815 17.0813C8.32815 21.9284 12.2379 25.8381 17.085 25.8381C21.9321 25.8381 25.8418 21.9284 25.8418 17.0813C25.8418 12.2341 21.9321 8.32443 17.085 8.32443ZM17.085 22.7744C13.9526 22.7744 11.3919 20.2212 11.3919 17.0813C11.3919 13.9413 13.945 11.3882 17.085 11.3882C20.225 11.3882 22.7781 13.9413 22.7781 17.0813C22.7781 20.2212 20.2173 22.7744 17.085 22.7744ZM28.2425 7.96623C28.2425 9.1018 27.328 10.0087 26.2 10.0087C25.0645 10.0087 24.1575 9.09418 24.1575 7.96623C24.1575 6.83828 25.0721 5.92373 26.2 5.92373C27.328 5.92373 28.2425 6.83828 28.2425 7.96623ZM34.0423 10.0392C33.9128 7.30318 33.2878 4.87962 31.2834 2.88284C29.2866 0.886068 26.8631 0.261124 24.127 0.123941C21.3072 -0.0361054 12.8552 -0.0361054 10.0353 0.123941C7.3069 0.253503 4.88333 0.878447 2.87894 2.87522C0.874541 4.87199 0.257218 7.29556 0.120035 10.0316C-0.0400117 12.8515 -0.0400117 21.3035 0.120035 24.1233C0.249597 26.8594 0.874541 29.2829 2.87894 31.2797C4.88333 33.2765 7.29927 33.9014 10.0353 34.0386C12.8552 34.1987 21.3072 34.1987 24.127 34.0386C26.8631 33.909 29.2866 33.2841 31.2834 31.2797C33.2802 29.2829 33.9051 26.8594 34.0423 24.1233C34.2024 21.3035 34.2024 12.8591 34.0423 10.0392ZM30.3994 27.149C29.8049 28.6427 28.6541 29.7936 27.1527 30.3956C24.9044 31.2873 19.5695 31.0816 17.085 31.0816C14.6005 31.0816 9.25794 31.2797 7.01729 30.3956C5.52352 29.8012 4.37271 28.6504 3.77062 27.149C2.87894 24.9007 3.08471 19.5658 3.08471 17.0813C3.08471 14.5967 2.88656 9.25423 3.77062 7.01357C4.36508 5.5198 5.5159 4.36899 7.01729 3.76691C9.26556 2.87522 14.6005 3.08099 17.085 3.08099C19.5695 3.08099 24.912 2.88284 27.1527 3.76691C28.6465 4.36137 29.7973 5.51218 30.3994 7.01357C31.291 9.26185 31.0853 14.5967 31.0853 17.0813C31.0853 19.5658 31.291 24.9083 30.3994 27.149Z" fill="#444752"/>
</svg>
