<svg width="35" height="35" viewBox="0 0 35 35" fill="none" xmlns="http://www.w3.org/2000/svg">
<path d="M31.9567 0H2.84655C1.45444 0 0.324707 1.10316 0.324707 2.46159V31.6974C0.324707 33.0578 1.45444 34.1624 2.84655 34.1624H31.9567C33.3497 34.1624 34.4871 33.0578 34.4871 31.6974V2.46159C34.4871 1.10316 33.3497 0 31.9567 0ZM10.4567 29.1111H5.38738V12.8085H10.4567V29.1111ZM7.92203 10.5794C6.2979 10.5794 4.98502 9.26322 4.98502 7.64051C4.98502 6.02017 6.2979 4.70397 7.92203 4.70397C9.54237 4.70397 10.8586 6.02017 10.8586 7.64051C10.8586 9.26322 9.54237 10.5794 7.92203 10.5794ZM29.4339 29.1111H24.3726V21.1835C24.3726 19.2922 24.3356 16.8605 21.7388 16.8605C19.1017 16.8605 18.6998 18.9202 18.6998 21.0464V29.1115H13.6347V12.8085H18.4958V15.0348H18.565C19.2416 13.7537 20.8947 12.4019 23.3601 12.4019C28.4873 12.4019 29.4344 15.7773 29.4344 20.1686L29.4339 29.1111Z" fill="#444752"/>
</svg>
